<?xml version="1.0" encoding="utf-8"?>
<!-- Generator: Adobe Illustrator 18.0.0, SVG Export Plug-In . SVG Version: 6.00 Build 0)  -->
<!DOCTYPE svg PUBLIC "-//W3C//DTD SVG 1.1//EN" "http://www.w3.org/Graphics/SVG/1.1/DTD/svg11.dtd">
<svg version="1.1" id="Layer_1" xmlns="http://www.w3.org/2000/svg" xmlns:xlink="http://www.w3.org/1999/xlink" x="0px" y="0px"
	 viewBox="0 0 700 700" enable-background="new 0 0 700 700" xml:space="preserve">
<path fill="#FFFFFF" d="M494.5,173.6h-58.8H434v-2.2c0-6.2,0-12.9,0-20.2c0-25.2-19-45.4-43.7-45.4h-80.6
	c-25.2,0-43.7,20.2-43.7,45.4c0,7.3,0,14,0,20.2v2.2h-61c-20.2,0-34.2,14.6-34.2,34.7V411c0,20.2,14.6,37,34.2,37h289
	c20.2,0,34.7-16.8,34.7-37V208.3C529.2,188.2,514.6,173.6,494.5,173.6z M309.7,134.4h80.6c9.5,0,17.4,7.3,17.4,16.8
	s-7.8,16.8-17.4,16.8h-80.6c-9.5,0-17.4-7.3-17.4-16.8S299.6,134.4,309.7,134.4z M428.4,336h-56v50.4h-44.8V336h-56v-50.4h56v-50.4
	h44.8v50.4h56V336z"/>
</svg>
