<?xml version="1.0" encoding="utf-8"?>
<!-- Generator: Adobe Illustrator 18.0.0, SVG Export Plug-In . SVG Version: 6.00 Build 0)  -->
<!DOCTYPE svg PUBLIC "-//W3C//DTD SVG 1.1//EN" "http://www.w3.org/Graphics/SVG/1.1/DTD/svg11.dtd">
<svg version="1.1" id="Layer_1" xmlns="http://www.w3.org/2000/svg" xmlns:xlink="http://www.w3.org/1999/xlink" x="0px" y="0px"
	 viewBox="0 0 700 700" enable-background="new 0 0 700 700" xml:space="preserve">
<g>
	<path fill="#FFFFFF" d="M353.6,56.9c-2.7-5.4-14.9-26.5-17.3-26.5C312.5,186.3,207.3,198.6,213,312.8
		c1.7,32.9,21.9,96.6,91.9,118.2c-0.7-0.4-1.3-1-1.9-1.4c8.9,3.8,18.2,6.3,27.5,7.2c-34.4-10-60-44-30.2-104.9
		c18.4-37.5,64.1-81.6,48.9-133.5c0,0,41.2,51.5,13.1,129.9c-12.7,35.7,43.4,39.5,28.2,0.6c-9.2-23.5,43.5,54.3-3.2,107.9
		c10.6-0.9,19.1-3.9,26.1-8.2c60.8-23.8,79.2-84.6,80.7-115.8C499.8,198.7,390.3,131.7,353.6,56.9z"/>
	<polygon fill="#FFFFFF" points="523.2,292.4 493.9,292.4 493.4,320.7 507.2,320.7 557.9,452.7 141.5,452.7 196.7,320.7 
		213.7,320.7 213.2,292.4 177.7,292.4 83.6,488.1 617.4,488.1 	"/>
</g>
</svg>
