<svg xmlns="http://www.w3.org/2000/svg" xmlns:xlink="http://www.w3.org/1999/xlink" version="1.1" x="0px" y="0px" viewBox="0 -11.164 99.998 125" enable-background="new 0 -11.164 99.998 100" xml:space="preserve"><g><path fill="#000000" d="M50.633,0.985C50.158,0.02,47.978-3.74,47.549-3.74c-4.255,27.836-23.025,30.03-22.016,50.435   c0.297,5.869,3.907,17.244,16.404,21.104c-0.119-0.08-0.229-0.17-0.344-0.252c1.597,0.686,3.248,1.117,4.918,1.287   c-6.143-1.779-10.72-7.859-5.384-18.732c3.279-6.689,11.451-14.565,8.729-23.844c0,0,7.357,9.194,2.347,23.202   c-2.274,6.367,7.752,7.061,5.036,0.113c-1.644-4.197,7.771,9.693-0.573,19.262c1.899-0.158,3.409-0.693,4.656-1.469   c10.866-4.246,14.141-15.111,14.412-20.67C76.753,26.318,57.2,14.348,50.633,0.985z"/><polygon fill="#000000" points="80.933,43.046 75.696,43.046 75.609,48.101 78.073,48.101 87.119,71.671 12.763,71.671    22.623,48.101 25.66,48.101 25.569,43.046 19.236,43.046 2.421,77.982 97.748,77.982  "/></g><text x="0" y="103.836" fill="#000000" font-size="5px" font-weight="bold" font-family="'Helvetica Neue', Helvetica, Arial-Unicode, Arial, Sans-serif">Created by Denny Hurkmans</text><text x="0" y="108.836" fill="#000000" font-size="5px" font-weight="bold" font-family="'Helvetica Neue', Helvetica, Arial-Unicode, Arial, Sans-serif">from the Noun Project</text></svg>