<svg xmlns="http://www.w3.org/2000/svg" xmlns:xlink="http://www.w3.org/1999/xlink" version="1.1" x="0px" y="0px" viewBox="0 0 100 125" enable-background="new 0 0 100 100" xml:space="preserve"><path d="M75.8,31H65.3H65c0,0,0-0.4,0-0.4c0-1.1,0-2.3,0-3.6c0-4.5-3.4-8.1-7.8-8.1H42.8c-4.5,0-7.8,3.6-7.8,8.1c0,1.3,0,2.5,0,3.6  c0,0,0,0.4,0,0.4H24.1c-3.6,0-6.1,2.6-6.1,6.2v36.2c0,3.6,2.6,6.6,6.1,6.6h51.6c3.6,0,6.2-3,6.2-6.6V37.2C82,33.6,79.4,31,75.8,31z   M42.8,24h14.4c1.7,0,3.1,1.3,3.1,3c0,1.7-1.4,3-3.1,3H42.8c-1.7,0-3.1-1.3-3.1-3C39.7,25.3,41,24,42.8,24z M64,60H54v9h-8v-9H36v-9  h10v-9h8v9h10V60z"/><text x="0" y="115" fill="#000000" font-size="5px" font-weight="bold" font-family="'Helvetica Neue', Helvetica, Arial-Unicode, Arial, Sans-serif">Created by sagit milshtein</text><text x="0" y="120" fill="#000000" font-size="5px" font-weight="bold" font-family="'Helvetica Neue', Helvetica, Arial-Unicode, Arial, Sans-serif">from the Noun Project</text></svg>